<svg width="19" height="19" viewBox="0 0 19 19" fill="none" xmlns="http://www.w3.org/2000/svg">
<path opacity="0.2" fill-rule="evenodd" clip-rule="evenodd" d="M2.27769 8.12217C2.81469 7.58617 3.22769 6.56017 3.21269 5.80217C3.20516 5.44428 3.27022 5.08858 3.40393 4.75653C3.53765 4.42448 3.73725 4.12296 3.99069 3.87017C4.25325 3.60694 4.56825 3.4019 4.91523 3.26838C5.26222 3.13486 5.63341 3.07584 6.00469 3.09517C6.71869 3.13117 7.62069 2.78517 8.12469 2.27917C8.62347 1.78088 9.29966 1.50098 10.0047 1.50098C10.7097 1.50098 11.3859 1.78088 11.8847 2.27917C12.3897 2.78417 13.2907 3.13117 14.0047 3.09517C14.3761 3.0757 14.7475 3.13465 15.0947 3.26817C15.4419 3.4017 15.757 3.60681 16.0197 3.87017C16.2731 4.12316 16.4726 4.42488 16.6061 4.75711C16.7397 5.08934 16.8045 5.44519 16.7967 5.80317C16.7817 6.56017 17.1967 7.58717 17.7317 8.12317C18.23 8.62333 18.5093 9.3009 18.5081 10.0069C18.507 10.7129 18.2256 11.3896 17.7257 11.8882C17.1977 12.4162 16.8117 13.3262 16.7977 14.0722C16.7847 14.7586 16.5058 15.4133 16.0197 15.8982C15.5538 16.365 14.9305 16.6414 14.2717 16.6732C13.4807 16.7132 12.4447 17.1732 11.8847 17.7332C11.3859 18.2315 10.7097 18.5114 10.0047 18.5114C9.29966 18.5114 8.62347 18.2315 8.12469 17.7332C7.56469 17.1732 6.52969 16.7132 5.73869 16.6732C5.07988 16.6414 4.45661 16.365 3.99069 15.8982C3.50508 15.4138 3.2262 14.7599 3.21269 14.0742C3.19769 13.3262 2.80669 12.4102 2.27769 11.8812C1.7797 11.3824 1.5 10.7065 1.5 10.0017C1.5 9.29688 1.7797 8.6209 2.27769 8.12217Z" fill="#14AE5C"/>
<path fill-rule="evenodd" clip-rule="evenodd" d="M3.19769 3.07819C3.03953 3.23578 2.91499 3.42383 2.83163 3.63096C2.74826 3.83808 2.7078 4.05997 2.71269 4.28319C2.72269 4.83319 2.58269 5.41519 2.37969 5.91919C2.17669 6.42419 1.87369 6.94119 1.48569 7.33019C1.17518 7.6414 1.00079 8.06307 1.00079 8.50269C1.00079 8.94232 1.17518 9.36399 1.48569 9.67519C2.19569 10.3862 2.69169 11.5482 2.71269 12.5542C2.72059 12.9738 2.88769 13.3747 3.18013 13.6757C3.47258 13.9767 3.8685 14.1552 4.28769 14.1752C4.83769 14.2022 5.41669 14.3692 5.92469 14.5952C6.43169 14.8202 6.94369 15.1372 7.33269 15.5262C7.6439 15.8367 8.06557 16.0111 8.50519 16.0111C8.94482 16.0111 9.36649 15.8367 9.67769 15.5262C10.0667 15.1372 10.5777 14.8202 11.0857 14.5942C11.5937 14.3692 12.1727 14.2022 12.7227 14.1752C13.1423 14.1554 13.5386 13.9767 13.8312 13.6752C14.1237 13.3737 14.2905 12.9722 14.2977 12.5522C14.3177 11.5502 14.8067 10.3932 15.5177 9.68219C15.6726 9.52822 15.7957 9.34525 15.8799 9.14372C15.964 8.94219 16.0077 8.72605 16.0084 8.50764C16.009 8.28923 15.9666 8.07284 15.8836 7.87081C15.8007 7.66878 15.6787 7.48508 15.5247 7.33019C15.1367 6.94219 14.8347 6.42519 14.6307 5.92019C14.4267 5.41519 14.2867 4.83319 14.2977 4.28319C14.3025 4.0599 14.2618 3.83797 14.1783 3.63084C14.0948 3.42371 13.97 3.2357 13.8117 3.07819C13.6481 2.91377 13.4517 2.78569 13.2353 2.70229C13.0189 2.6189 12.7873 2.58206 12.5557 2.59419C11.5597 2.64419 10.3827 2.19219 9.67769 1.48719C9.36649 1.17667 8.94482 1.00229 8.50519 1.00229C8.06557 1.00229 7.6439 1.17667 7.33269 1.48719C6.62769 2.19219 5.45069 2.64419 4.45469 2.59419C4.22292 2.58192 3.99116 2.61868 3.77456 2.70208C3.55796 2.78549 3.36139 2.91365 3.19769 3.07819ZM1.71269 4.30119C1.72769 5.05919 1.31469 6.08619 0.777693 6.62219C0.279704 7.12092 0 7.7969 0 8.50169C0 9.20648 0.279704 9.88246 0.777693 10.3812C1.30769 10.9102 1.69769 11.8262 1.71269 12.5732C1.72669 13.2352 1.98569 13.8932 2.49069 14.3982C2.95661 14.8651 3.57988 15.1414 4.23869 15.1732C5.02969 15.2132 6.06569 15.6722 6.62569 16.2332C7.12442 16.7312 7.8004 17.0109 8.50519 17.0109C9.20998 17.0109 9.88596 16.7312 10.3847 16.2332C10.9447 15.6722 11.9807 15.2132 12.7717 15.1732C13.4305 15.1414 14.0538 14.8651 14.5197 14.3982C15.0054 13.9131 15.284 13.2585 15.2967 12.5722C15.3117 11.8252 15.6967 10.9162 16.2257 10.3882C16.7259 9.88958 17.0075 9.21269 17.0086 8.50643C17.0098 7.80018 16.7303 7.1224 16.2317 6.62219C15.6957 6.08619 15.2817 5.06019 15.2977 4.30219C15.3054 3.94414 15.2404 3.58825 15.1067 3.25602C14.9729 2.92378 14.7733 2.6221 14.5197 2.36919C14.257 2.10583 13.9419 1.90072 13.5947 1.76719C13.2475 1.63367 12.8761 1.57472 12.5047 1.59419C11.7907 1.63019 10.8897 1.28419 10.3847 0.778192C9.88592 0.279898 9.20973 0 8.50469 0C7.79966 0 7.12347 0.279898 6.62469 0.778192C6.12069 1.28419 5.21869 1.63019 4.50469 1.59419C4.13341 1.57487 3.76222 1.63388 3.41523 1.7674C3.06825 1.90092 2.75325 2.10596 2.49069 2.36919C2.23725 2.62198 2.03765 2.9235 1.90393 3.25556C1.77022 3.58761 1.70516 3.94331 1.71269 4.30119Z" fill="#14AE5C"/>
<path fill-rule="evenodd" clip-rule="evenodd" d="M11.2979 5.56522C11.3552 5.59713 11.4058 5.64003 11.4466 5.69148C11.4874 5.74292 11.5177 5.8019 11.5357 5.86504C11.5537 5.92819 11.5591 5.99426 11.5516 6.05949C11.5441 6.12472 11.5238 6.18783 11.4918 6.24522L8.71485 11.2452C8.68294 11.3026 8.64004 11.3531 8.58859 11.394C8.53715 11.4348 8.47817 11.465 8.41503 11.4831C8.35188 11.5011 8.28581 11.5065 8.22058 11.4989C8.15535 11.4914 8.09224 11.4711 8.03485 11.4392C7.97746 11.4073 7.92692 11.3644 7.88611 11.313C7.84531 11.2615 7.81503 11.2025 7.79702 11.1394C7.779 11.0763 7.7736 11.0102 7.78112 10.945C7.78864 10.8797 7.80894 10.8166 7.84085 10.7592L10.6178 5.75922C10.6498 5.70183 10.6927 5.65129 10.7441 5.61048C10.7955 5.56967 10.8545 5.5394 10.9177 5.52138C10.9808 5.50337 11.0469 5.49797 11.1121 5.50549C11.1774 5.51301 11.2405 5.53331 11.2979 5.56522Z" fill="#14AE5C"/>
<path fill-rule="evenodd" clip-rule="evenodd" d="M5.10971 8.46725C5.19254 8.36394 5.31297 8.29771 5.44458 8.28309C5.57618 8.26847 5.70821 8.30664 5.81171 8.38925L8.58971 10.6112C8.69327 10.6941 8.75967 10.8148 8.7743 10.9466C8.78893 11.0784 8.75059 11.2107 8.66771 11.3142C8.58483 11.4178 8.4642 11.4842 8.33236 11.4988C8.20052 11.5135 8.06827 11.4751 7.96471 11.3922L5.18771 9.17125C5.13641 9.13022 5.0937 9.07949 5.06201 9.02195C5.03033 8.96441 5.01029 8.9012 5.00305 8.83591C4.99581 8.77063 5.0015 8.70455 5.0198 8.64147C5.0381 8.57838 5.06865 8.51952 5.10971 8.46825" fill="#14AE5C"/>
</svg>
